<svg width="80" height="80" viewBox="0 0 80 80" fill="none" xmlns="http://www.w3.org/2000/svg">
<circle cx="40" cy="40" r="39.5" fill="url(#paint0_linear_184_4792)" stroke="url(#paint1_linear_184_4792)"/>
<path opacity="0.5" d="M36.75 25.5H44.25C51.3211 25.5 54.8566 25.5 57.0533 27.6967C59.25 29.8934 59.25 33.4289 59.25 40.5C59.25 47.5711 59.25 51.1066 57.0533 53.3033C54.8566 55.5 51.3211 55.5 44.25 55.5H36.75C29.6789 55.5 26.1434 55.5 23.9467 53.3033C21.75 51.1066 21.75 47.5711 21.75 40.5C21.75 33.4289 21.75 29.8934 23.9467 27.6967C26.1434 25.5 29.6789 25.5 36.75 25.5Z" fill="white"/>
<path d="M27.8438 48C27.8438 47.2233 28.4733 46.5938 29.25 46.5938H36.75C37.5267 46.5938 38.1562 47.2233 38.1562 48C38.1562 48.7767 37.5267 49.4062 36.75 49.4062H29.25C28.4733 49.4062 27.8438 48.7767 27.8438 48Z" fill="white"/>
<path d="M53.1562 42.375C53.1562 41.5983 52.5267 40.9688 51.75 40.9688H44.25C43.4733 40.9688 42.8438 41.5983 42.8438 42.375C42.8438 43.1517 43.4733 43.7812 44.25 43.7812H51.75C52.5267 43.7812 53.1562 43.1517 53.1562 42.375Z" fill="white"/>
<path d="M40.0312 48C40.0312 47.2233 40.6608 46.5938 41.4375 46.5938H44.25C45.0266 46.5938 45.6562 47.2233 45.6562 48C45.6562 48.7767 45.0266 49.4062 44.25 49.4062H41.4375C40.6608 49.4062 40.0312 48.7767 40.0312 48Z" fill="white"/>
<path d="M40.9688 42.375C40.9688 41.5983 40.3392 40.9688 39.5625 40.9688H35.8125C35.0358 40.9688 34.4062 41.5983 34.4062 42.375C34.4062 43.1517 35.0358 43.7812 35.8125 43.7812H39.5625C40.3392 43.7812 40.9688 43.1517 40.9688 42.375Z" fill="white"/>
<path d="M47.5312 48C47.5312 47.2233 48.1608 46.5938 48.9375 46.5938H51.75C52.5266 46.5938 53.1562 47.2233 53.1562 48C53.1562 48.7767 52.5266 49.4062 51.75 49.4062H48.9375C48.1608 49.4062 47.5312 48.7767 47.5312 48Z" fill="white"/>
<path d="M32.5312 42.375C32.5312 41.5983 31.9017 40.9688 31.125 40.9688H29.25C28.4733 40.9688 27.8438 41.5983 27.8438 42.375C27.8438 43.1517 28.4733 43.7812 29.25 43.7812H31.125C31.9017 43.7812 32.5312 43.1517 32.5312 42.375Z" fill="white"/>
<defs>
<linearGradient id="paint0_linear_184_4792" x1="40" y1="0" x2="40" y2="80" gradientUnits="userSpaceOnUse">
<stop stop-color="#585967"/>
<stop offset="0.479291" stop-color="#33354E"/>
<stop offset="1" stop-color="#0B0D33"/>
</linearGradient>
<linearGradient id="paint1_linear_184_4792" x1="40" y1="0" x2="40" y2="80" gradientUnits="userSpaceOnUse">
<stop stop-color="white" stop-opacity="0.5"/>
<stop offset="1" stop-color="white" stop-opacity="0"/>
</linearGradient>
</defs>
</svg>
