<svg width="80" height="80" viewBox="0 0 80 80" fill="none" xmlns="http://www.w3.org/2000/svg">
<circle cx="40" cy="40" r="39.5" fill="url(#paint0_linear_210_10790)" stroke="url(#paint1_linear_210_10790)"/>
<path fill-rule="evenodd" clip-rule="evenodd" d="M43.8097 56.1905V25.2381C43.8097 23.8509 43.8067 22.9541 43.7178 22.2934C43.6345 21.6738 43.5 21.4796 43.3913 21.3708C43.2825 21.2621 43.0883 21.1276 42.4687 21.0443C41.808 20.9554 40.9113 20.9524 39.524 20.9524C38.1367 20.9524 37.24 20.9554 36.5793 21.0443C35.9597 21.1276 35.7654 21.2621 35.6567 21.3708C35.548 21.4796 35.4135 21.6738 35.3301 22.2934C35.2413 22.9541 35.2383 23.8509 35.2383 25.2381V56.1905H43.8097Z" fill="white"/>
<path opacity="0.7" d="M32.3839 33.8094C32.3839 33.0205 31.7443 32.3809 30.9554 32.3809H25.2411C24.4521 32.3809 23.8125 33.0205 23.8125 33.8094V56.1904H32.3839V33.8094Z" fill="white"/>
<path opacity="0.7" d="M55.2394 43.3334C55.2394 42.5444 54.5998 41.9048 53.8108 41.9048H48.0965C47.3076 41.9048 46.668 42.5444 46.668 43.3334V56.1905H55.2394V43.3334Z" fill="white"/>
<path opacity="0.5" d="M20.4794 56.1904C19.6904 56.1904 19.0508 56.83 19.0508 57.619C19.0508 58.408 19.6904 59.0476 20.4794 59.0476H58.5746C59.3636 59.0476 60.0032 58.408 60.0032 57.619C60.0032 56.83 59.3636 56.1904 58.5746 56.1904H58.0984H55.2413H46.6698H43.8127H35.2413H32.3841H23.8127H20.9555H20.4794Z" fill="white"/>
<defs>
<linearGradient id="paint0_linear_210_10790" x1="40" y1="0" x2="40" y2="80" gradientUnits="userSpaceOnUse">
<stop stop-color="#585967"/>
<stop offset="0.479291" stop-color="#33354E"/>
<stop offset="1" stop-color="#0B0D33"/>
</linearGradient>
<linearGradient id="paint1_linear_210_10790" x1="40" y1="0" x2="40" y2="80" gradientUnits="userSpaceOnUse">
<stop stop-color="white" stop-opacity="0.5"/>
<stop offset="1" stop-color="white" stop-opacity="0"/>
</linearGradient>
</defs>
</svg>
